<svg width="63" height="63" viewBox="0 0 63 63" fill="none" xmlns="http://www.w3.org/2000/svg">
<path d="M7.875 27.3446C7.875 18.9499 7.875 14.7525 8.86725 13.3402C9.85688 11.9306 13.8023 10.5787 21.6956 7.87762L23.1998 7.36313C27.3131 5.9535 29.3685 5.25 31.5 5.25C33.6315 5.25 35.6869 5.9535 39.8002 7.36313L41.3044 7.87762C49.1977 10.5787 53.1431 11.9306 54.1327 13.3402C55.125 14.7525 55.125 18.9525 55.125 27.3446V31.4764C55.125 46.2761 43.9976 53.4608 37.0151 56.5084C35.1225 57.3353 34.1775 57.75 31.5 57.75C28.8225 57.75 27.8775 57.3353 25.9849 56.5084C19.0024 53.4581 7.875 46.2788 7.875 31.4764V27.3446Z" stroke="#F26921" stroke-width="3"/>
<path d="M28.5099 21.9529C29.8408 19.5667 30.5049 18.375 31.4998 18.375C32.4947 18.375 33.1588 19.5667 34.4897 21.9529L34.8309 22.5697C35.2116 23.2496 35.4006 23.5882 35.6946 23.8114C35.9886 24.0345 36.3561 24.1185 37.0911 24.2839L37.7578 24.4361C40.3408 25.0189 41.6323 25.3129 41.9394 26.2999C42.2466 27.2895 41.3672 28.3185 39.6058 30.3765L39.1491 30.9094C38.6503 31.4947 38.4009 31.7861 38.2881 32.1484C38.1752 32.5106 38.2119 32.9017 38.2881 33.6814L38.3563 34.3901C38.6241 37.1385 38.7553 38.5114 37.9521 39.123C37.1488 39.7346 35.9387 39.1755 33.5211 38.0651L32.8937 37.7764C32.2086 37.4614 31.8647 37.3012 31.4998 37.3012C31.1349 37.3012 30.7911 37.4587 30.1059 37.7737L29.4786 38.0625C27.0636 39.1781 25.8508 39.7346 25.0476 39.123C24.2443 38.5114 24.3756 37.1385 24.6433 34.3927L24.7116 33.6814C24.7877 32.9017 24.8244 32.5106 24.7116 32.1484C24.5987 31.7861 24.3493 31.4921 23.8506 30.9094L23.3938 30.3765C21.6351 28.3185 20.7531 27.2895 21.0602 26.2999C21.3673 25.3129 22.6588 25.0189 25.2418 24.4361L25.9086 24.2839C26.6436 24.1185 27.0111 24.0345 27.3051 23.8114C27.5991 23.5882 27.7881 23.2496 28.1661 22.5697L28.5099 21.9529Z" stroke="#F26921" stroke-width="3"/>
</svg>
